#!OML:ASF F:\VICON\USERDATA\INSTALL\rory3\rory3.ASF
:FULLY-SPECIFIED
:DEGREES
679
root 6.40416 15.9514 -9.81946 6.35674 45.9927 -4.42451
lowerback -5.9936 -2.80383 -1.14918
upperback -10.3133 -2.88689 9.97908
thorax -7.03371 -0.753942 11.489
lowerneck 0.543349 -6.95026 -0.410917
upperneck 28.6029 -7.61718 -7.16797
head 8.52092 -4.09897 -2.84365
rclavicle -3.73715e-014 1.04958e-013
rhumerus 74.9817 9.69131 -31.0462
rradius 50.8551
rwrist 0.320013
rhand 17.5857 23.0942
rfingers 7.12502
rthumb 42.2798 -1.40141
lclavicle -3.73715e-014 1.04958e-013
lhumerus 90.9512 -2.98286 32.009
lradius 48.4638
lwrist 32.6156
lhand 37.0217 29.6355
lfingers 7.12502
lthumb 59.8838 43.5372
rfemur -52.7614 -1.42185 30.2398
rtibia 51.6976
rfoot -1.99519 -7.27093
rtoes 11.0483
lfemur -26.4254 -12.7606 -25.7122
ltibia 49.352
lfoot -27.0572 0.684135
ltoes -31.6295
680
root 6.37324 15.9723 -9.86528 6.75118 44.3924 -4.27396
lowerback -5.85883 -2.07801 -0.732849
upperback -10.7244 -1.93867 8.88479
thorax -7.7876 -0.324656 10.0368
lowerneck 2.81038 -7.33201 0.842672
upperneck 28.0388 -8.37507 -6.57919
head 7.86148 -4.25025 -2.76501
rclavicle -6.79844e-014 -3.49861e-014
rhumerus 72.1899 10.4371 -35.2895
rradius 52.3926
rwrist -13.7692
rhand 26.7839 16.2652
rfingers 7.12502
rthumb 50.7937 -4.53054
lclavicle -6.79844e-014 -3.49861e-014
lhumerus 91.6223 -6.2509 33.88
lradius 47.6971
lwrist 33.2163
lhand 37.0371 28.9755
lfingers 7.12502
lthumb 59.897 42.8635
rfemur -52.9201 -0.51288 29.4493
rtibia 50.7932
rfoot -0.429564 -4.20263
rtoes 7.02567
lfemur -26.1038 -12.3602 -26.1315
ltibia 48.124
lfoot -27.6464 3.27153
ltoes -33.2843
681
root 6.33615 15.9999 -9.90882 6.90217 42.7778 -4.57954
lowerback -5.83019 -1.54654 -0.308226
upperback -10.8236 -1.25764 8.31221
thorax -8.04298 -0.0400113 9.14823
lowerneck 3.87031 -7.45185 1.64847
upperneck 27.6378 -8.64343 -6.2349
head 7.50949 -4.26244 -2.73001
rclavicle 6.75868e-015 4.77083e-015
rhumerus 70.2682 10.273 -40.7675
rradius 54.7494
rwrist -17.6277
rhand 35.4731 6.38802
rfingers 7.12502
rthumb 58.5485 -8.83079
lclavicle 6.75868e-015 4.77083e-015
lhumerus 91.6464 -8.6675 36.2712
lradius 46.8635
lwrist 34.2135
lhand 36.6369 29.3059
lfingers 7.12502
lthumb 59.5538 43.5463
rfemur -53.0469 0.954648 28.7526
rtibia 49.6961
rfoot 0.838883 -1.91163
rtoes 4.73854
lfemur -26.065 -11.6566 -26.1098
ltibia 47.077
lfoot -27.9161 5.93003
ltoes -35.6309
682
root 6.30001 16.0251 -9.95999 6.98957 41.0872 -5.03057
lowerback -5.75081 -1.63376 -0.160489
upperback -10.3841 -1.41036 8.63492
thorax -7.57281 -0.147971 9.40061
lowerneck 3.14927 -6.73581 1.54524
upperneck 27.4434 -7.677 -6.26353
head 7.60658 -3.83536 -2.70899
rclavicle 1.74931e-014 -5.56597e-014
rhumerus 70.6848 11.5987 -43.1929
rradius 53.4916
rwrist -24.2194
rhand 33.5192 9.81061
rfingers 7.12502
rthumb 56.84 -6.90791
lclavicle 1.74931e-014 -5.56597e-014
lhumerus 90.2196 -8.92324 38.8468
lradius 45.9227
lwrist 35.4981
lhand 35.9349 30.2278
lfingers 7.12502
lthumb 58.9486 45.0664
rfemur -53.2887 2.50262 28.0877
rtibia 48.494
rfoot 1.80146 -0.00850789
rtoes 1.99941
lfemur -26.1507 -11.1098 -25.82
ltibia 46.259
lfoot -28.3287 7.65252
ltoes -35.5716
683
root 6.27036 16.0372 -10.0132 7.24704 39.5104 -5.22984
lowerback -5.65836 -1.4372 0.110714
upperback -10.2494 -1.18137 8.42504
thorax -7.51565 -0.0772259 9.00016
lowerneck 3.4258 -6.34248 1.92984
upperneck 27.0655 -7.21547 -5.99891
head 7.44452 -3.56173 -2.6425
rclavicle 8.74653e-015 -2.70347e-014
rhumerus 69.8455 12.2738 -46.4652
rradius 53.7182
rwrist -29.8007
rhand 34.1494 7.1223
rfingers 7.12502
rthumb 57.3938 -9.13089
lclavicle 8.74653e-015 -2.70347e-014
lhumerus 89.282 -10.1399 41.4782
lradius 44.9464
lwrist 36.6816
lhand 34.8726 30.8777
lfingers 7.12502
lthumb 58.0261 46.5756
rfemur -53.6333 3.52336 27.3177
rtibia 47.2527
rfoot 2.62763 1.30881
rtoes -0.549806
lfemur -26.3423 -10.7652 -25.6837
ltibia 45.7191
lfoot -28.6979 8.93168
ltoes -35.4191
684
root 6.23672 16.0529 -10.0648 7.52135 38.1494 -5.22318
lowerback -5.31715 -1.64814 0.144097
upperback -9.99392 -1.49166 8.46137
thorax -7.37684 -0.255425 9.01737
lowerneck 3.05666 -5.54831 1.62847
upperneck 26.8797 -6.21511 -5.59707
head 7.51382 -3.09508 -2.42751
rclavicle 3.61788e-014 1.20861e-013
rhumerus 69.9478 14.1551 -48.3179
rradius 52.6374
rwrist -41.0459
rhand 28.4968 4.28947
rfingers 7.12502
rthumb 52.3506 -15.6056
lclavicle 3.61788e-014 1.20861e-013
lhumerus 87.5411 -10.5238 44.2499
lradius 43.928
lwrist 37.4863
lhand 33.5778 30.8776
lfingers 7.12502
lthumb 56.8915 47.5536
rfemur -53.8604 3.9155 26.6883
rtibia 46.1799
rfoot 3.36611 1.91336
rtoes -4.14572
lfemur -26.526 -10.2972 -25.6688
ltibia 45.3216
lfoot -28.8305 9.30714
ltoes -35.0957
685
root 6.19654 16.0665 -10.1138 7.94265 36.9908 -5.05191
lowerback -5.05949 -1.89314 -0.212358
upperback -9.66243 -1.85144 8.58864
thorax -7.0889 -0.431717 9.35784
lowerneck 2.50412 -4.88881 1.50009
upperneck 26.5716 -5.34611 -5.51909
head 7.54398 -2.70433 -2.34999
rclavicle 8.74653e-014 -5.08889e-014
rhumerus 69.9757 15.3314 -51.9855
rradius 52.4256
rwrist -53.5657
rhand 27.4081 -0.639453
rfingers 7.12502
rthumb 51.3623 -21.1164
lclavicle 8.74653e-014 -5.08889e-014
lhumerus 85.9005 -10.6737 47.6647
lradius 42.8296
lwrist 38.1332
lhand 32.4925 31.0232
lfingers 7.12502
lthumb 55.9327 48.4649
rfemur -54.1754 3.89197 26.1986
rtibia 45.283
rfoot 4.07266 1.61678
rtoes -10.5785
lfemur -26.9012 -9.75202 -25.7332
ltibia 45.0557
lfoot -28.8809 9.03756
ltoes -34.2735
686
root 6.15173 16.1049 -10.1617 8.27069 35.8913 -5.0318
lowerback -4.78759 -2.04062 -0.512014
upperback -9.24459 -2.08174 8.75907
thorax -6.73399 -0.550428 9.71028
lowerneck 2.06803 -4.38993 1.89342
upperneck 25.8181 -4.63853 -5.9233
head 7.36541 -2.3819 -2.50663
rclavicle 2.42517e-014 9.54166e-015
rhumerus 69.6776 16.1759 -55.9215
rradius 52.6038
rwrist -64.7644
rhand 23.3689 -6.13964
rfingers 7.12502
rthumb 47.6596 -28.5097
lclavicle 2.42517e-014 9.54166e-015
lhumerus 84.461 -10.6789 51.6577
lradius 41.6953
lwrist 38.7418
lhand 31.9849 31.1032
lfingers 7.12502
lthumb 55.4821 48.8873
rfemur -54.5894 5.23667 24.6213
rtibia 44.6725
rfoot 4.67788 -2.15358
rtoes -4.86087
lfemur -27.3502 -8.98962 -25.6522
ltibia 44.7755
lfoot -28.6547 8.90209
ltoes -33.208
687
root 6.10863 16.1289 -10.2082 8.47434 34.9099 -5.09453
lowerback -4.33651 -2.1292 -0.577825
upperback -8.77856 -2.23491 8.81405
thorax -6.45022 -0.651944 9.80132
lowerneck 1.07093 -3.91076 2.30481
upperneck 25.3287 -3.96954 -6.32077
head 7.37939 -2.0822 -2.68689
rclavicle 5.28767e-014 -3.65764e-014
rhumerus 69.3228 16.7196 -59.8418
rradius 52.3256
rwrist -69.5976
rhand 19.2741 -7.4325
rfingers 7.12502
rthumb 43.8582 -31.368
lclavicle 5.28767e-014 -3.65764e-014
lhumerus 83.0749 -10.6973 56.0041
lradius 40.8532
lwrist 39.2024
lhand 32.5647 31.6005
lfingers 7.12502
lthumb 55.9967 48.9928
rfemur -55.05 6.55888 23.0265
rtibia 44.2185
rfoot 4.57309 -7.20725
rtoes 1.20805
lfemur -27.8286 -8.02702 -25.5566
ltibia 44.567
lfoot -28.2666 9.09558
ltoes -32.929
688
root 6.06361 16.1486 -10.2503 8.88671 34.1226 -4.81273
lowerback -4.14844 -2.17133 -0.984411
upperback -8.6179 -2.32177 8.62278
thorax -6.35702 -0.691736 9.82358
lowerneck -0.369 -3.4155 0.670288
upperneck 26.2402 -3.4512 -4.92126
head 8.04339 -1.88724 -1.97553
rclavicle 1.25234e-014 -3.33958e-014
rhumerus 68.1959 17.3423 -62.8541
rradius 52.0522
rwrist -71.2034
rhand 24.3332 -3.84598
rfingers 7.12502
rthumb 48.5482 -25.7989
lclavicle 1.25234e-014 -3.33958e-014
lhumerus 81.4406 -11.2316 59.8084
lradius 40.5468
lwrist 40.2959
lhand 32.5958 33.741
lfingers 7.12502
lthumb 56.0243 51.1119
rfemur -55.6677 7.12611 21.4916
rtibia 44.0124
rfoot 3.48876 -12.5888
rtoes 10.4016
lfemur -28.2434 -7.0358 -25.7315
ltibia 44.3184
lfoot -27.9945 8.3908
ltoes -31.2661
689
root 6.01701 16.1774 -10.2913 9.40857 33.5069 -4.36041
lowerback -4.03344 -2.17346 -1.6019
upperback -8.5529 -2.35418 8.34046
thorax -6.33245 -0.688338 9.87147
lowerneck -0.611813 -3.2758 0.611081
upperneck 26.3053 -3.31648 -4.64713
head 8.1211 -1.81007 -1.87247
rclavicle 4.41302e-014 -4.29375e-014
rhumerus 66.6992 17.4763 -66.3466
rradius 51.0844
rwrist -70.2943
rhand 21.505 -2.37419
rfingers 7.12502
rthumb 45.9345 -25.496
lclavicle 4.41302e-014 -4.29375e-014
lhumerus 80.0188 -11.5557 64.1651
lradius 39.9928
lwrist 38.733
lhand 37.3472 37.2934
lfingers 7.12502
lthumb 60.1621 50.9024
rfemur -56.3302 6.7416 20.3605
rtibia 43.941
rfoot 1.85111 -17.3859
rtoes 18.4168
lfemur -28.6181 -6.24342 -26.023
ltibia 44.0571
lfoot -27.8922 7.43951
ltoes -29.1238
690
root 5.96972 16.2083 -10.3323 9.86826 33.0497 -4.09204
lowerback -3.88277 -2.0797 -1.9774
upperback -8.60679 -2.25054 7.94351
thorax -6.49372 -0.624061 9.6579
lowerneck -0.537254 -3.29678 0.79
upperneck 26.3278 -3.43143 -4.34508
head 8.11481 -1.82134 -1.80874
rclavicle 9.10434e-014 -9.54166e-014
rhumerus 64.9635 16.9635 -70.3352
rradius 49.7457
rwrist -68.7815
rhand 20.3857 -1.68482
rfingers 7.12502
rthumb 44.8942 -25.2259
lclavicle 9.10434e-014 -9.54166e-014
lhumerus 78.4625 -12.3162 68.6254
lradius 39.6739
lwrist 37.3211
lhand 42.5312 40.3112
lfingers 7.12502
lthumb 64.4573 48.3665
rfemur -57.0878 6.68263 18.9467
rtibia 43.9362
rfoot -0.893298 -21.9911
rtoes 25.5524
lfemur -29.0722 -5.6589 -26.1761
ltibia 43.7903
lfoot -27.791 7.32254
ltoes -29.8335
691
root 5.92497 16.2304 -10.3717 10.3444 32.6624 -3.91004
lowerback -3.74633 -1.89961 -2.11997
upperback -8.73785 -2.03165 7.40669
thorax -6.76012 -0.515635 9.1545
lowerneck -0.587476 -3.38531 1.14107
upperneck 26.456 -3.67658 -3.94316
head 8.16218 -1.86902 -1.75446
rclavicle 3.57812e-014 3.97569e-014
rhumerus 63.3401 16.071 -74.0972
rradius 48.6227
rwrist -68.0577
rhand 18.415 -1.73024
rfingers 7.12502
rthumb 43.0558 -25.9564
lclavicle 3.57812e-014 3.97569e-014
lhumerus 76.7135 -13.3945 72.8558
lradius 40.0329
lwrist 37.2244
lhand 48.2887 44.2875
lfingers 7.12502
lthumb 68.7936 43.5255
rfemur -57.8999 7.25307 16.9685
rtibia 43.9131
rfoot -5.78519 -26.0989
rtoes 33.5772
lfemur -29.6173 -5.17809 -26.2855
ltibia 43.5093
lfoot -27.4808 7.50684
ltoes -31.23
692
root 5.89275 16.239 -10.4126 10.8547 32.3696 -3.75576
lowerback -3.66235 -1.904 -2.10238
upperback -8.85947 -2.05376 7.04684
thorax -6.94324 -0.53569 8.75427
lowerneck -0.630293 -3.272 1.09075
upperneck 26.3976 -3.62348 -3.48996
head 8.16385 -1.81093 -1.59112
rclavicle 1.27421e-013 6.36111e-015
rhumerus 62.0471 15.5697 -77.5983
rradius 47.6184
rwrist -67.5401
rhand 18.0719 -2.99742
rfingers 7.12502
rthumb 42.7349 -27.3364
lclavicle 1.27421e-013 6.36111e-015
lhumerus 74.9257 -13.714 76.0704
lradius 40.5638
lwrist 38.9103
lhand 47.7899 46.6882
lfingers 7.12502
lthumb 68.4427 46.8319
rfemur -58.4729 7.36959 15.3137
rtibia 43.6848
rfoot -6.20014 -28.8967
rtoes 32.4079
lfemur -30.3299 -4.91349 -26.4067
ltibia 43.5347
lfoot -27.2526 7.45782
ltoes -30.2393
